<svg xmlns="http://www.w3.org/2000/svg" viewBox="0 0 24 24" width="128" height="128">
  <rect width="24" height="24" fill="white" rx="2"/>
  <path fill="#336791" d="M17.128 0a10.134 10.134 0 0 0-2.755.403l-.063.02A10.922 10.922 0 0 0 12.6.258C11.422.238 10.41.524 9.594 1 8.79.721 7.122.24 5.364.336 4.395.39 3.37.663 2.56 1.298 1.747 1.934 1.203 2.965 1.06 4.348c-.108 1.054.024 2.426.348 3.967.322 1.521.86 3.197 1.839 4.672a6.028 6.028 0 0 0 1.417 1.64c.49.38 1.108.63 1.73.556a2.09 2.09 0 0 0 1.125-.562c.09.086.185.17.284.25a3.65 3.65 0 0 0 2.37.764 4.247 4.247 0 0 0 1.57-.35l.075.069c.173.16.348.3.57.413.221.112.48.183.755.196.502.022 1.003-.162 1.47-.46a7.194 7.194 0 0 0 1.304-1.132l-.004.028c.192-.217.353-.393.518-.55a.877.877 0 0 1 .102-.084c.112.012.217.02.327.02.77 0 1.575-.222 2.162-.81.526-.529.784-1.3.735-2.295-.03-.575-.16-1.22-.374-1.96.098-.112.195-.224.284-.337a9.01 9.01 0 0 0 1.132-2.23c.27-.792.42-1.63.38-2.432-.041-.796-.247-1.553-.735-2.122-.484-.567-1.2-.91-2.07-1.04a6.996 6.996 0 0 0-.623-.048zm.085.798c.654.034 1.217.253 1.587.692.367.436.535 1.066.572 1.783.036.72-.1 1.505-.35 2.245a8.272 8.272 0 0 1-1.043 2.05c-.174.24-.362.474-.564.696.11.43.201.842.249 1.226.075.607.074 1.157-.047 1.587-.12.43-.344.72-.662.892-.64.348-1.617.109-2.422-.413a5.695 5.695 0 0 1-.522-.4c-.074.112-.148.224-.225.33-.314.432-.641.765-.962 1.002-.32.237-.622.36-.88.397-.257.038-.479-.022-.693-.154a2.208 2.208 0 0 1-.458-.39 2.835 2.835 0 0 1-.055.068c-.34.394-.698.547-1.048.555-.35.008-.699-.126-1.03-.346a5.302 5.302 0 0 1-.32-.244 1.453 1.453 0 0 1-.834.386c-.413.048-.86-.118-1.272-.436a5.266 5.266 0 0 1-1.25-1.446c-.934-1.413-1.455-3.026-1.768-4.512-.312-1.485-.435-2.812-.337-3.776.122-1.21.586-2.05 1.236-2.556.648-.505 1.527-.743 2.409-.792 1.574-.088 3.117.38 3.983.658l.16.053.139-.083c.652-.391 1.517-.594 2.493-.578.51.008 1.048.084 1.592.249l.09.028.092-.026a9.268 9.268 0 0 1 2.562-.368zM9.5 2.077c-.37.01-.736.046-1.087.106a7.696 7.696 0 0 0-1.366.37c-.372.157-.72.38-1.01.694-.29.315-.52.73-.63 1.292-.053.27-.07.578-.052.916H5.37c.067-.283.17-.528.313-.73.283-.398.714-.653 1.18-.79.467-.136.972-.17 1.42-.138.45.03.87.124 1.15.217a.395.395 0 1 0 .247-.75c-.365-.12-.834-.228-1.348-.26a4.793 4.793 0 0 0-1.652.157c-.569.166-1.139.496-1.53 1.054-.195.279-.33.61-.407.99H4.73a5.7 5.7 0 0 1-.01-.207c-.015-.267.002-.51.045-.728.088-.438.268-.763.494-1.004.227-.24.518-.422.858-.566a6.93 6.93 0 0 1 1.24-.333 8.497 8.497 0 0 1 1.157-.106zm-.536 3.15c-.258-.007-.498.083-.605.27-.107.186-.046.469.225.748.27.278.736.553 1.434.67.697.116 1.194-.003 1.516-.226.322-.222.437-.527.373-.767-.064-.24-.277-.405-.543-.487a2.962 2.962 0 0 0-.773-.09c-.27 0-.55.021-.808.02-.258 0-.503-.01-.653-.084a.458.458 0 0 0-.166-.054zm9.133.117c-.113-.007-.212.015-.318.073a.454.454 0 0 0-.185.191c-.093.19-.09.444.035.704.188.39.538.802 1.04 1.09.263.152.563.27.876.308.313.037.657-.01.941-.216.284-.207.486-.568.516-1.055.017-.287-.02-.618-.115-.97-.31.144-.62.269-.896.352-.374.112-.71.158-.99.144a2.607 2.607 0 0 1-.904-.32zm-8.47.517c.11 0 .22.012.325.037.21.05.39.162.496.331.104.168.122.403.044.672a1.54 1.54 0 0 1-.457.731c-.215.188-.49.314-.806.376-.317.062-.67.058-1.007-.008a3.08 3.08 0 0 1-.861-.303c-.244-.143-.417-.333-.44-.554-.022-.22.108-.477.394-.677.285-.2.717-.356 1.312-.413a5.6 5.6 0 0 1 1-.193zm8.207.388c.097.006.2.019.302.04.31.063.564.2.701.388.137.19.166.43.109.71-.057.282-.195.604-.402.934-.414.657-.976 1.22-1.447 1.62a2.88 2.88 0 0 1-.45.304c.093-.246.16-.504.195-.77.065-.49.036-1.008-.046-1.535a9.914 9.914 0 0 0-.214-.935 6.477 6.477 0 0 0 .97-.557l.006-.004a.386.386 0 0 0 .276-.195zm-7.386.684c-.115.048-.206.13-.264.24a.534.534 0 0 0-.052.335c.023.134.09.268.183.394a1.71 1.71 0 0 0 .568.47c.235.12.528.195.87.198.17.001.356-.016.548-.057.19-.04.38-.11.545-.225.164-.116.295-.28.344-.49.05-.21.012-.467-.153-.706-.166-.238-.43-.413-.747-.507a2.937 2.937 0 0 0-.966-.106 2.32 2.32 0 0 0-.876.454zm4.908 3.66c.15.003.3.024.45.069.454.133.803.453.96.854.156.4.12.89-.117 1.355-.237.465-.65.874-1.17 1.15-.518.276-1.143.421-1.784.357a3.23 3.23 0 0 1-1.64-.675 3.34 3.34 0 0 1-.494-.497 2.997 2.997 0 0 1-.403-.757l-.005-.016a3.15 3.15 0 0 1-.175-.978c-.012-.382.058-.787.265-1.148.206-.361.545-.675 1.03-.871a3.68 3.68 0 0 1 1.41-.266c.219.001.44.018.653.06.214.04.42.107.614.218.193.11.37.267.5.476.13.21.2.474.205.775a3.81 3.81 0 0 1-.097.97zm-1.677-.586a2.88 2.88 0 0 0-1.095.206c-.394.163-.637.39-.778.644-.14.254-.18.547-.17.84a2.36 2.36 0 0 0 .133.73c.088.23.215.449.38.63.164.18.361.327.571.43.42.204.905.27 1.373.22.468-.05.924-.199 1.283-.396.36-.197.633-.46.784-.742.151-.28.17-.57.082-.827-.086-.257-.288-.477-.558-.633a2.28 2.28 0 0 0-.472-.181 3.126 3.126 0 0 0-.533-.046zm-4.2.293c-.265.008-.505.044-.705.128a1.33 1.33 0 0 0-.674.601c-.136.249-.178.556-.152.869.026.313.117.633.257.923.14.29.328.55.545.76.217.21.464.367.717.454.506.174 1.056.09 1.54-.19.483-.28.908-.744 1.135-1.283a2.45 2.45 0 0 0 .109-.302 2.28 2.28 0 0 1-.452-.24 2.546 2.546 0 0 1-.628-.713 2.462 2.462 0 0 1-.3-.844 3.605 3.605 0 0 0-.592-.163zm8.554.35c.144.306.25.628.313.95.09.46.1.937.016 1.393a4.14 4.14 0 0 1-.368 1.07 5.5 5.5 0 0 0 .576-.644c.327-.457.572-.984.657-1.478.085-.493.016-.95-.194-1.29zm-3.695 5.48c-.26.005-.513.055-.76.15a3.31 3.31 0 0 0-.973.583c.213.116.422.262.614.443.318.303.545.697.633 1.14.088.445.028.931-.198 1.37a3.127 3.127 0 0 1-.89 1.019 2.08 2.08 0 0 0 .59.154c.415.04.878-.054 1.342-.312.464-.258.93-.693 1.272-1.313a4.44 4.44 0 0 0 .558-2.013c-.22-.43-.54-.763-.87-.97a2.235 2.235 0 0 0-.318-.25zm-2.133.64a2.258 2.258 0 0 0-.615.134c-.402.148-.773.449-1.04.9-.266.45-.42 1.056-.378 1.778.007.13.022.263.043.397a3.01 3.01 0 0 0 .76.048c.347-.022.71-.12 1.04-.328.328-.208.624-.53.776-.965.152-.434.135-.91-.026-1.34a1.685 1.685 0 0 0-.56-.624z"/>
</svg>
