<svg xmlns="http://www.w3.org/2000/svg" viewBox="0 0 24 24" width="128" height="128">
  <rect width="24" height="24" fill="white" rx="2"/>
  <path fill="#DC382D" d="M10.5 2.661L6.953 4.185 3.406 2.661l3.547-1.524zm9.754 4.25l-3.548 1.523-3.547-1.524 3.547-1.523zM5.606 7.203L2.059 5.68l3.547-1.524 3.548 1.524zm9.395-2.26l-3.548 1.523L7.906 4.944l3.547-1.524zM0 11.594v-1.93l1.787.77v1.93zm22.213-.382l1.787.77v1.93l-1.787-.77zM0 15.218v-1.93l1.787.77v1.93zm22.213-.383l1.787.77v1.93l-1.787-.77zM0 18.843v-1.93l1.787.77v1.93zm22.213-.382l1.787.77v1.93l-1.787-.77zM4.477 8.914L.93 7.39l3.547-1.524 3.548 1.524zm14.906 3.836L16.16 14.27 13.042 12.6l3.12-1.52zm-7.594-3.04L8.242 11.234 5.12 9.563l3.12-1.52zm0 3.837L8.242 15.07l-3.12-1.67 3.12-1.52zm7.594-3.837l-3.242 1.52-3.12-1.67 3.12-1.52zM7.02 21.087l-3.079-1.47 3.078-1.517 3.079 1.47zm10.06 0l-3.079-1.47 3.079-1.517 3.079 1.47zM12 18.717l-3.079-1.47L12 15.73l3.079 1.517z"/>
</svg>
